<svg width="25" height="20" viewBox="0 0 25 20" fill="none" xmlns="http://www.w3.org/2000/svg">
<path d="M20.817 2.36979C19.261 1.65555 17.6189 1.14623 15.9319 0.85459C15.9166 0.85173 15.9007 0.853777 15.8866 0.860438C15.8725 0.867099 15.8609 0.878035 15.8534 0.89169C15.6424 1.26699 15.4087 1.75649 15.2451 2.14119C13.4004 1.86499 11.5651 1.86499 9.75827 2.14119C9.59467 1.74789 9.35247 1.26699 9.14057 0.89169C9.13273 0.878346 9.12104 0.867677 9.10703 0.861077C9.09303 0.854477 9.07736 0.852251 9.06207 0.85469C7.37485 1.14566 5.73267 1.65493 4.17687 2.36969C4.16356 2.37538 4.15235 2.38506 4.14477 2.39739C1.03337 7.04579 0.180973 11.5799 0.599173 16.0578C0.600356 16.0688 0.603727 16.0794 0.609086 16.089C0.614445 16.0986 0.621684 16.1071 0.630373 16.1139C2.68317 17.6215 4.67167 18.5367 6.62327 19.1433C6.63845 19.1478 6.65465 19.1476 6.66969 19.1427C6.68474 19.1377 6.69792 19.1283 6.70747 19.1157C7.16907 18.4853 7.58057 17.8205 7.93347 17.1215C7.93832 17.1119 7.94109 17.1014 7.9416 17.0907C7.9421 17.08 7.94033 17.0693 7.9364 17.0593C7.93247 17.0493 7.92647 17.0403 7.9188 17.0328C7.91112 17.0253 7.90195 17.0195 7.89187 17.0158C7.23907 16.7682 6.61757 16.4663 6.01967 16.1235C6.00877 16.1171 5.99961 16.1081 5.99301 16.0973C5.9864 16.0865 5.98255 16.0743 5.9818 16.0617C5.98105 16.049 5.98342 16.0364 5.9887 16.0249C5.99398 16.0135 6.00201 16.0034 6.01207 15.9958C6.13787 15.9015 6.26377 15.8035 6.38387 15.7044C6.39455 15.6956 6.40747 15.6899 6.42118 15.6881C6.43489 15.6862 6.44884 15.6882 6.46147 15.6939C10.3893 17.4872 14.6415 17.4872 18.5229 15.6939C18.5355 15.6879 18.5496 15.6856 18.5635 15.6873C18.5774 15.6889 18.5905 15.6945 18.6014 15.7034C18.7216 15.8024 18.8474 15.9015 18.9742 15.9958C18.9843 16.0034 18.9923 16.0133 18.9977 16.0247C19.003 16.0362 19.0055 16.0487 19.0048 16.0613C19.0042 16.074 19.0005 16.0862 18.994 16.097C18.9875 16.1078 18.9784 16.1169 18.9676 16.1234C18.3695 16.4727 17.7429 16.7709 17.0946 17.0148C17.0845 17.0186 17.0754 17.0246 17.0677 17.0322C17.0601 17.0398 17.0542 17.049 17.0504 17.059C17.0465 17.0691 17.0448 17.0799 17.0455 17.0906C17.0461 17.1014 17.0489 17.1119 17.0539 17.1215C17.4143 17.8195 17.8258 18.4843 18.2789 19.1147C18.2881 19.1277 18.3012 19.1375 18.3164 19.1426C18.3315 19.1477 18.3478 19.148 18.3631 19.1433C20.3241 18.5366 22.3126 17.6214 24.3654 16.1139C24.3742 16.1074 24.3816 16.0992 24.387 16.0897C24.3924 16.0801 24.3957 16.0696 24.3967 16.0587C24.8971 10.8817 23.5585 6.38479 20.8482 2.39829C20.8415 2.38534 20.8305 2.37519 20.817 2.36969V2.36979ZM8.51997 13.3312C7.33747 13.3312 6.36307 12.2455 6.36307 10.9122C6.36307 9.57899 7.31857 8.49329 8.52007 8.49329C9.73087 8.49329 10.6958 9.58849 10.6769 10.9123C10.6769 12.2455 9.72137 13.3312 8.51997 13.3312ZM16.4948 13.3312C15.3123 13.3312 14.3379 12.2455 14.3379 10.9122C14.3379 9.57899 15.2933 8.49329 16.4948 8.49329C17.7056 8.49329 18.6705 9.58849 18.6516 10.9123C18.6516 12.2455 17.7056 13.3312 16.4948 13.3312Z" fill="#4A67CF"/>
</svg>
