<svg width="156" height="46" viewBox="0 0 156 46" fill="none" xmlns="http://www.w3.org/2000/svg">
<path d="M24.6772 24.2759L18.1174 11.8773L4.26905 9.91687L10.8288 22.4214L0 20.9908L30.2478 46L17.8051 23.5341L24.6772 24.2759Z" fill="url(#paint0_linear_19_63)"/>
<path d="M14.4211 22.8453L7.86131 10.4467L4.26905 9.91687L10.8288 22.4214L14.4211 22.8453Z" fill="#4658EB"/>
<path d="M29.1545 45.0993L5.8309 21.7856L0 20.9908L29.1545 45.0993Z" fill="#4658EB"/>
<path d="M16.3994 20.6199L24.2087 24.223L17.8051 23.5341L16.3994 20.6199Z" fill="#7581F5"/>
<path d="M6.83462 0L11.9606 9.58787C11.9606 9.58787 12.5055 9.84167 17.2713 10.4809C23.2285 11.2798 27.1999 11.7498 29.0009 15.1338C33.9884 22.8041 28.4314 25.317 25.0295 25.6147L29.7398 34.6855C33.896 33.7299 41.7004 29.2806 39.6685 19.1287C37.6366 8.97688 30.0631 3.75995 23.4132 2.30297L6.83462 0Z" fill="url(#paint1_linear_19_63)"/>
<path d="M57.48 14.2H69.36L68.88 16.96H60.264L59.448 21.616H66.912L66.432 24.376H58.968L57.792 31H54.528L57.48 14.2ZM69.085 28.024L71.077 16.768L74.077 14.2H82.261L84.685 17.104L84.253 19.48H80.989L81.229 18.112L80.317 16.984H75.517L74.077 18.208L72.517 26.992L73.525 28.216H78.325L79.645 27.088L79.909 25.72H83.173L82.669 28.48L79.717 31H71.533L69.085 28.024ZM92.5146 28.024L94.5066 16.768L97.5066 14.2H105.691L108.115 17.104L107.683 19.48H104.419L104.659 18.112L103.747 16.984H98.9466L97.5066 18.208L95.9466 26.992L96.9546 28.216H101.755L103.075 27.088L103.339 25.72H106.603L106.099 28.48L103.147 31H94.9626L92.5146 28.024ZM111.511 14.2H114.775L112.303 28.24H120.679L120.199 31H108.559L111.511 14.2ZM122.771 27.928L125.195 14.2H128.459L126.203 26.992L127.211 28.216H131.891L133.331 26.992L135.587 14.2H138.851L136.355 28.36L133.259 31H125.315L122.771 27.928ZM142.581 14.2H152.901L155.061 16.792L154.245 21.304L153.117 22.288L154.509 24.016L153.693 28.648L150.933 31H139.629L142.581 14.2ZM150.189 21.232L151.197 20.368L151.653 17.776L150.957 16.936H145.293L144.549 21.232H150.189ZM149.517 28.264L150.741 27.232L151.149 24.88L150.309 23.848H144.093L143.301 28.264H149.517Z" fill="url(#paint2_linear_19_63)"/>
<defs>
<linearGradient id="paint0_linear_19_63" x1="0.833334" y1="6.98214" x2="41.6132" y2="9.15521" gradientUnits="userSpaceOnUse">
<stop stop-color="#9B51E0"/>
<stop offset="1" stop-color="#3081ED"/>
</linearGradient>
<linearGradient id="paint1_linear_19_63" x1="0.833334" y1="6.98214" x2="41.6132" y2="9.15521" gradientUnits="userSpaceOnUse">
<stop stop-color="#9B51E0"/>
<stop offset="1" stop-color="#3081ED"/>
</linearGradient>
<linearGradient id="paint2_linear_19_63" x1="56.125" y1="14.6429" x2="153.785" y2="40.0777" gradientUnits="userSpaceOnUse">
<stop stop-color="#9B51E0"/>
<stop offset="1" stop-color="#3081ED"/>
</linearGradient>
</defs>
</svg>
