<svg width="22" height="20" viewBox="0 0 22 20" fill="none" xmlns="http://www.w3.org/2000/svg">
<path d="M1.30987 11.4203L1.38481 11.2978L6.02824 3.96179C6.09605 3.85725 6.25666 3.86806 6.30663 3.98342C7.08113 5.73901 7.75212 7.92358 7.43804 9.28263C7.30599 9.84138 6.93836 10.5984 6.52435 11.2978C6.47081 11.3987 6.4137 11.4996 6.34946 11.597C6.32091 11.6402 6.27093 11.6655 6.2174 11.6655H1.4455C1.317 11.6655 1.24205 11.5249 1.30987 11.4203ZM22 13.9438C22 14.0123 21.9608 14.0699 21.9037 14.0952C21.5431 14.2502 20.3118 14.8234 19.8015 15.5407C18.4952 17.3756 17.4993 20 15.2687 20H5.96757C2.6697 20 0 17.2927 0 13.951V13.8428C0 13.7563 0.0713828 13.6842 0.16061 13.6842H5.34296C5.44647 13.6842 5.52142 13.7779 5.51428 13.8825C5.47502 14.2213 5.53927 14.571 5.69988 14.8882C6.00683 15.5191 6.6457 15.912 7.33454 15.912H9.90073V13.8897H7.36309C7.2346 13.8897 7.15608 13.7383 7.23103 13.6301C7.25959 13.5869 7.28814 13.5436 7.32383 13.4932C7.56297 13.1471 7.90559 12.6136 8.24823 12.0043C8.48023 11.5934 8.70508 11.1536 8.8871 10.7138C8.9228 10.6345 8.95135 10.5516 8.98347 10.4722C9.03343 10.3317 9.08341 10.1983 9.11909 10.0685C9.15479 9.95674 9.1869 9.84138 9.21546 9.73324C9.30112 9.35833 9.33681 8.96179 9.33681 8.55083C9.33681 8.38861 9.32967 8.21918 9.3154 8.06056C9.30826 7.88392 9.28685 7.70728 9.26543 7.53064C9.25115 7.37563 9.2226 7.22062 9.19405 7.062C9.15479 6.82769 9.10482 6.59337 9.04772 6.35905L9.0263 6.26893C8.98347 6.10671 8.94421 5.9553 8.89424 5.79308C8.7479 5.28839 8.58372 4.79452 8.40528 4.33309C8.34103 4.14924 8.26964 3.9726 8.1947 3.79957C8.08762 3.5328 7.97698 3.29128 7.87704 3.06417C7.82351 2.95963 7.78067 2.8659 7.73785 2.76857C7.68788 2.66042 7.63791 2.55227 7.58438 2.44773C7.54868 2.36842 7.50586 2.29272 7.47731 2.22062L7.16322 1.63663C7.12039 1.55732 7.19177 1.45999 7.27743 1.48522L9.24045 2.02235H9.24759C9.25115 2.02235 9.25115 2.02235 9.25472 2.02235L9.51169 2.09805L9.79723 2.17736L9.90073 2.2062V1.031C9.90073 0.461428 10.3504 0 10.9108 0C11.1892 0 11.4426 0.115357 11.6211 0.302812C11.803 0.490267 11.9172 0.746215 11.9172 1.031V2.77938L12.1279 2.83706C12.1421 2.84427 12.16 2.85148 12.1743 2.86229C12.2242 2.89834 12.2992 2.95602 12.392 3.02812C12.467 3.0858 12.5454 3.15789 12.6383 3.2336C12.8274 3.38861 13.0558 3.58688 13.3021 3.81399C13.3664 3.87167 13.4306 3.92934 13.4913 3.99063C13.8089 4.28983 14.1658 4.63951 14.5085 5.02884C14.6048 5.14059 14.6977 5.24874 14.794 5.3677C14.8868 5.48666 14.9902 5.60202 15.076 5.71738C15.1938 5.87239 15.3151 6.03461 15.4258 6.20404C15.4757 6.28335 15.5364 6.36626 15.5828 6.44557C15.7256 6.65826 15.8468 6.87815 15.9646 7.09805C16.0146 7.19899 16.0646 7.31074 16.1075 7.41889C16.2395 7.71449 16.343 8.0137 16.4073 8.31651C16.4286 8.3814 16.4429 8.44989 16.4501 8.51478V8.5292C16.4714 8.61572 16.4786 8.70944 16.4857 8.80678C16.5143 9.11319 16.5 9.42322 16.4358 9.73324C16.4073 9.86301 16.3715 9.98558 16.3287 10.119C16.2823 10.2451 16.2394 10.3749 16.1824 10.5011C16.0717 10.757 15.9433 11.0166 15.7897 11.2545C15.7398 11.3446 15.6791 11.4384 15.622 11.5285C15.5577 11.6222 15.49 11.7123 15.4329 11.7988C15.3508 11.9106 15.2652 12.026 15.1759 12.1305C15.0974 12.2386 15.0189 12.3468 14.9297 12.4441C14.8083 12.5919 14.6905 12.7289 14.5656 12.8623C14.4942 12.9488 14.4157 13.0389 14.3336 13.1182C14.255 13.2084 14.173 13.2877 14.1016 13.3598C13.9766 13.4859 13.8767 13.5797 13.791 13.6626L13.5876 13.8464C13.5591 13.8753 13.5198 13.8897 13.4806 13.8897H11.9172V15.912H13.8839C14.3229 15.912 14.7405 15.757 15.0795 15.465C15.1938 15.3641 15.697 14.9243 16.2931 14.261C16.3144 14.2358 16.3395 14.2213 16.3679 14.2141L21.7966 12.628C21.9001 12.5991 22 12.6748 22 12.783V13.9438Z" fill="#4A67CF"/>
</svg>
