<svg width="16" height="16" viewBox="0 0 16 16" fill="none" xmlns="http://www.w3.org/2000/svg">
<path d="M2.66667 13.1467V12.1511H13.3333V13.1467H2.66667ZM15.0044 1.36889H16V16H2.82667C2.07699 16 1.35801 15.7022 0.827911 15.1721C0.297809 14.642 0 13.923 0 13.1733L0 2.82667C0 2.07699 0.297809 1.35801 0.827911 0.827911C1.35801 0.297809 2.07699 0 2.82667 0L13.1022 0V10.4444H2.75556C2.28406 10.4444 1.83187 10.6317 1.49848 10.9651C1.16508 11.2985 0.977778 11.7507 0.977778 12.2222V13.1822C0.977778 13.6679 1.1707 14.1336 1.5141 14.477C1.8575 14.8204 2.32325 15.0133 2.80889 15.0133H14.9867L15.0044 1.36889ZM2.82667 0.995556H12.1067V9.44889H2.66667C2.04322 9.46483 1.44404 9.69383 0.968889 10.0978V2.82667C0.968863 2.58394 1.0171 2.34363 1.11078 2.11972C1.20447 1.8958 1.34173 1.69274 1.5146 1.52236C1.68747 1.35197 1.89249 1.21765 2.11774 1.12721C2.34299 1.03677 2.58397 0.992021 2.82667 0.995556Z" fill="#4A67CF"/>
</svg>
